<?xml version="1.0" standalone="no"?>
<!DOCTYPE svg PUBLIC "-//W3C//DTD SVG 20010904//EN"
 "http://www.w3.org/TR/2001/REC-SVG-20010904/DTD/svg10.dtd">
<svg version="1.0" xmlns="http://www.w3.org/2000/svg"
 width="1280.000000pt" height="906.000000pt" viewBox="0 0 1280.000000 906.000000"
 preserveAspectRatio="xMidYMid meet">
<g transform="translate(0.000000,906.000000) scale(0.100000,-0.100000)"
fill="#000000" stroke="none">
<path d="M5151 8125 c-194 -42 -367 -141 -477 -272 -47 -56 -120 -165 -129
-194 -10 -30 -32 -22 -45 16 -18 55 -92 128 -170 169 -306 161 -884 109 -1146
-102 -104 -84 -163 -215 -149 -328 3 -30 4 -58 0 -63 -3 -6 -33 3 -69 20 -261
122 -590 44 -812 -194 -109 -116 -174 -269 -174 -407 0 -112 58 -276 136 -381
19 -27 33 -53 30 -58 -3 -5 -31 -23 -61 -40 -117 -66 -224 -209 -260 -347 -19
-75 -19 -223 0 -299 25 -97 74 -184 145 -256 98 -99 205 -150 360 -173 l85
-12 -4 -101 c-4 -113 12 -186 57 -263 35 -60 113 -142 173 -181 l49 -31 0 -82
c1 -237 122 -426 345 -537 111 -54 215 -79 373 -87 l134 -7 1 -100 c2 -93 5
-105 39 -177 92 -192 310 -318 605 -348 227 -24 530 25 808 130 60 22 114 39
121 36 6 -2 13 -31 16 -63 12 -123 112 -256 247 -327 121 -63 225 -88 401 -93
176 -6 310 9 494 57 61 15 114 26 117 24 4 -2 10 -19 13 -38 15 -81 158 -242
280 -315 132 -79 271 -116 411 -108 215 13 402 117 583 327 40 47 76 86 81 88
5 2 22 -21 39 -50 82 -147 300 -283 557 -349 120 -31 364 -34 465 -6 199 56
335 181 400 367 13 36 26 69 30 73 4 5 56 -3 115 -18 101 -26 118 -27 274 -22
193 5 279 24 408 87 136 67 233 171 267 289 23 78 21 210 -5 307 -36 134 -37
126 16 152 88 42 206 174 268 297 75 150 89 325 34 437 -30 61 -107 140 -177
180 -64 37 -181 75 -289 92 -50 8 -96 18 -101 21 -5 3 9 43 31 89 24 49 46
114 53 157 7 41 27 102 45 137 116 229 132 461 45 634 -90 177 -361 297 -672
298 -59 0 -84 4 -88 13 -2 7 7 38 20 69 83 187 78 385 -14 528 -78 121 -226
217 -405 262 -130 33 -400 33 -561 0 -127 -25 -301 -78 -423 -128 -46 -19 -84
-34 -86 -32 -1 2 -7 40 -13 86 -15 108 -51 181 -128 258 -147 148 -391 238
-674 250 -127 5 -139 8 -205 39 -124 59 -180 70 -370 70 -180 -1 -260 -14
-429 -71 -38 -13 -73 -24 -78 -24 -4 0 -8 33 -8 74 0 217 -146 397 -405 501
-153 61 -391 83 -544 50z"/>
<path d="M3038 3233 c-77 -149 -151 -315 -188 -424 -39 -112 -39 -204 -2 -280
101 -206 364 -223 479 -30 67 113 65 189 -13 389 -40 103 -195 426 -213 445
-4 4 -33 -41 -63 -100z"/>
<path d="M4093 2553 c-127 -230 -203 -412 -203 -488 0 -101 76 -213 172 -255
72 -31 164 -31 236 0 95 41 172 153 172 251 0 51 -34 156 -86 269 -52 111
-194 370 -203 370 -4 0 -43 -66 -88 -147z"/>
<path d="M5338 2563 c-132 -233 -208 -413 -208 -493 0 -94 63 -191 155 -235
64 -32 168 -37 229 -11 90 37 160 126 172 219 11 80 -46 231 -180 474 -104
190 -89 186 -168 46z"/>
<path d="M8812 2308 c-35 -44 -188 -380 -218 -478 -55 -181 61 -354 237 -352
70 0 123 26 176 86 69 78 81 174 38 304 -27 81 -204 452 -216 452 -3 0 -11 -6
-17 -12z"/>
<path d="M7827 2228 c-74 -133 -173 -342 -197 -418 -38 -119 -18 -221 58 -298
128 -127 343 -92 425 70 52 100 38 187 -63 403 -44 96 -154 302 -169 318 -4 4
-28 -30 -54 -75z"/>
<path d="M6904 2138 c-68 -114 -199 -382 -223 -456 -27 -83 -26 -174 3 -230
93 -180 335 -217 471 -71 105 113 107 200 10 420 -51 115 -205 399 -217 399
-4 0 -24 -28 -44 -62z"/>
</g>
</svg>
