<?xml version="1.0" encoding="UTF-8"?>
  <svg width="135" height="40" fill="none" viewBox="0 0 338 100" version="1.1" xmlns="http://www.w3.org/2000/svg" xmlns:xlink="http://www.w3.org/1999/xlink">
    <g clipPath="url(#google-app-store-en_svg__a)">
      <path
        fill="#000"
        d="M325.481 0H12.519C5.605 0 0 5.596 0 12.5v75C0 94.404 5.605 100 12.518 100h312.963C332.395 100 338 94.404 338 87.5v-75C338 5.596 332.395 0 325.481 0z"
      />
      <path
        fill="#A6A6A6"
        d="M325.481 2c5.809 0 10.516 4.7 10.516 10.5v75c0 5.8-4.707 10.5-10.516 10.5H12.519c-5.81 0-10.516-4.7-10.516-10.5v-75C2.003 6.7 6.71 2 12.518 2h312.963zm0-2H12.519C5.633 0 0 5.625 0 12.5v75C0 94.375 5.633 100 12.518 100h312.963C332.367 100 338 94.375 338 87.5v-75C338 5.625 332.367 0 325.481 0z"
      />
      <path
        fill="#fff"
        stroke="#fff"
        strokeMiterlimit="10"
        strokeWidth="0.2"
        d="M115.12 31.875c-.826.3-2.428.775-4.331.775-2.128 0-3.906-.55-5.283-1.875-1.227-1.175-1.978-3.05-1.978-5.25 0-4.2 2.904-7.3 7.661-7.3 1.628 0 2.905.35 3.531.65l-.451 1.475c-.751-.325-1.702-.6-3.13-.6-3.43 0-5.683 2.125-5.683 5.675s2.153 5.7 5.458 5.7c1.202 0 2.003-.175 2.429-.375v-4.2h-2.88v-1.475h4.657v6.8zm10.516-6h-5.508v5.1h6.134V32.5h-7.937V18.375h7.636V19.9h-5.808v4.45h5.508v1.5l-.025.025zm6.459-5.95h-4.306v-1.55h10.466v1.55h-4.332V32.5h-1.853V19.925h.025zm14.847-1.55V32.5h-1.827V18.375h1.827zm6.285 1.55h-4.307v-1.55h10.466v1.55h-4.332V32.5h-1.852V19.925h.025zm25.112 5.375c0 4.85-2.955 7.425-6.56 7.425-3.605 0-6.359-2.9-6.359-7.15 0-4.475 2.779-7.425 6.559-7.425 3.781 0 6.36 2.95 6.36 7.15zm-10.966.225c0 3.025 1.627 5.725 4.506 5.725 2.88 0 4.532-2.65 4.532-5.875 0-2.8-1.477-5.75-4.507-5.75-3.029 0-4.531 2.775-4.531 5.875v.025zm13.77 6.975V18.375h2.003l4.532 7.15c1.051 1.65 1.877 3.15 2.528 4.575h.05c-.175-1.9-.2-3.625-.2-5.825v-5.9h1.728V32.5h-1.853l-4.482-7.175c-.976-1.575-1.928-3.175-2.654-4.7h-.075c.1 1.8.151 3.5.151 5.85V32.5h-1.728z"
      />
      <path
        fill="#fff"
        d="M170.602 54.375c-5.883 0-10.69 4.475-10.69 10.625s4.807 10.625 10.69 10.625c5.884 0 10.691-4.5 10.691-10.625s-4.807-10.625-10.691-10.625zm0 17.075c-3.229 0-6.009-2.65-6.009-6.45 0-3.8 2.78-6.45 6.009-6.45 3.23 0 6.009 2.625 6.009 6.45s-2.779 6.45-6.009 6.45zm-23.309-17.075c-5.884 0-10.691 4.475-10.691 10.625s4.807 10.625 10.691 10.625 10.691-4.5 10.691-10.625-4.807-10.625-10.691-10.625zm0 17.075c-3.23 0-6.009-2.65-6.009-6.45 0-3.8 2.779-6.45 6.009-6.45 3.23 0 6.009 2.625 6.009 6.45s-2.779 6.45-6.009 6.45zm-27.741-13.825v4.5h10.816c-.326 2.525-1.177 4.4-2.454 5.675-1.577 1.575-4.031 3.3-8.337 3.3-6.66 0-11.868-5.35-11.868-12s5.208-12 11.868-12c3.58 0 6.209 1.4 8.137 3.225l3.18-3.175c-2.704-2.575-6.285-4.55-11.342-4.55-9.114 0-16.775 7.4-16.775 16.525 0 9.125 7.661 16.525 16.775 16.525 4.932 0 8.638-1.6 11.542-4.625C134.073 68.05 135 63.85 135 60.475c0-1.05-.075-2.025-.251-2.825h-15.197v-.025zm113.443 3.5c-.877-2.375-3.581-6.775-9.114-6.775-5.533 0-10.04 4.3-10.04 10.625 0 5.95 4.507 10.625 10.566 10.625 4.882 0 7.711-2.975 8.863-4.7l-3.63-2.425c-1.202 1.775-2.855 2.95-5.233 2.95-2.379 0-4.081-1.075-5.158-3.225l14.246-5.875-.475-1.2h-.025zm-14.522 3.55c-.125-4.1 3.18-6.2 5.558-6.2 1.853 0 3.43.925 3.956 2.25l-9.514 3.95zm-11.567 10.3h4.682v-31.25h-4.682v31.25zm-7.661-18.25h-.15c-1.052-1.25-3.055-2.375-5.609-2.375-5.333 0-10.215 4.675-10.215 10.675 0 6 4.882 10.6 10.215 10.6 2.529 0 4.557-1.125 5.609-2.425h.15v1.525c0 4.075-2.178 6.25-5.684 6.25-2.854 0-4.632-2.05-5.358-3.775l-4.081 1.7c1.177 2.825 4.282 6.275 9.439 6.275 5.483 0 10.115-3.225 10.115-11.075V55h-4.431v1.725zm-5.358 14.7c-3.23 0-5.934-2.7-5.934-6.4s2.704-6.475 5.934-6.475 5.683 2.75 5.683 6.475c0 3.725-2.503 6.4-5.683 6.4zm61.04-27.7h-11.191v31.25h4.681v-11.85h6.535c5.183 0 10.265-3.75 10.265-9.7 0-5.95-5.082-9.7-10.265-9.7h-.025zm.125 15.075h-6.635V48.075h6.635c3.505 0 5.483 2.9 5.483 5.35 0 2.45-1.978 5.35-5.483 5.35v.025zm28.868-4.5c-3.38 0-6.885 1.5-8.337 4.775l4.156 1.725c.876-1.725 2.529-2.3 4.256-2.3 2.404 0 4.882 1.45 4.907 4.025v.325c-.851-.475-2.654-1.2-4.882-1.2-4.481 0-9.013 2.45-9.013 7.025 0 4.175 3.655 6.875 7.761 6.875 3.13 0 4.883-1.4 5.959-3.05h.15v2.4h4.507V62.925c0-5.55-4.156-8.65-9.514-8.65l.05.025zm-.576 17.125c-1.527 0-3.655-.775-3.655-2.65 0-2.4 2.654-3.325 4.957-3.325 2.053 0 3.03.45 4.256 1.05-.35 2.9-2.854 4.95-5.558 4.95v-.025zm26.489-16.45-5.358 13.55h-.15l-5.558-13.55h-5.032l8.337 18.95-4.757 10.525h4.882l12.844-29.475h-5.208zm-42.087 20h4.682v-31.25h-4.682v31.25z"
      />
      <path
        fill="#EA4335"
        d="M51.877 48.55 25.212 76.8c.826 3.075 3.63 5.35 6.96 5.35 1.328 0 2.58-.35 3.656-1l.075-.05 29.994-17.275L51.852 48.55h.025z"
      />
      <path
        fill="#FBBC04"
        d="M78.842 43.75h-.025l-12.945-7.525L51.276 49.2l14.646 14.625L78.817 56.4c2.253-1.225 3.78-3.6 3.78-6.325s-1.502-5.1-3.755-6.3v-.025z"
      />
      <path
        fill="#4285F4"
        d="M25.212 23.2c-.15.6-.25 1.2-.25 1.85v49.9c0 .65.075 1.25.25 1.85l27.566-27.525L25.212 23.2z"
      />
      <path
        fill="#34A853"
        d="m52.077 50 13.795-13.775-29.969-17.35a7.192 7.192 0 0 0-3.73-1.025c-3.33 0-6.135 2.275-6.96 5.325L52.076 50z"
      />
    </g>
    <defs>
      <clipPath id="google-app-store-en_svg__a">
        <path fill="#fff" d="M0 0h338v100H0z" />
      </clipPath>
    </defs>
  </svg>

